2.6Hz3min_grf.mot
version=1
nRows=30
nColumns 19
inDegrees=yes
endheader
time	1_ground_force_vx	1_ground_force_vy	1_ground_force_vz	1_ground_force_px	1_ground_force_py	1_ground_force_pz	1_ground_torque_x	1_ground_torque_y	1_ground_torque_z	2_ground_force_vx	2_ground_force_vy	2_ground_force_vz	2_ground_force_px	2_ground_force_py	2_ground_force_pz	2_ground_torque_x	2_ground_torque_y	2_ground_torque_z
            3.751500	           -6.300516	          511.963021	          -42.087239	           -0.174727	            0.006095	           -0.373074	           -0.020296	            1.649228	           -0.135579	            3.295566	          337.428055	           38.228750	           -0.190447	            0.005913	           -0.730344	           -0.001418	           -0.145188	           -0.016449
            3.752000	           -6.068833	          506.552539	          -41.514873	           -0.174341	            0.006098	           -0.373690	           -0.019923	            1.662944	           -0.136288	            3.499622	          332.824697	           38.306100	           -0.190450	            0.005912	           -0.730211	           -0.001001	           -0.095244	           -0.010962
            3.752500	           -6.159340	          502.585890	          -41.348227	           -0.174376	            0.006096	           -0.373227	           -0.019753	            1.611760	           -0.132601	            3.421791	          328.405468	           38.102658	           -0.190294	            0.005911	           -0.729847	           -0.000832	           -0.079861	           -0.009266
            3.753000	           -5.698167	          497.535394	          -40.637313	           -0.174181	            0.006098	           -0.373569	           -0.019351	            1.689660	           -0.138007	            3.198031	          325.459421	           37.763748	           -0.190442	            0.005913	           -0.730464	           -0.000615	           -0.062577	           -0.007261
            3.753500	           -5.788461	          493.027721	          -40.427127	           -0.174276	            0.006098	           -0.373563	           -0.018614	            1.585461	           -0.130004	            3.396441	          322.331927	           37.095505	           -0.190731	            0.005913	           -0.730687	           -0.000853	           -0.080971	           -0.009318
            3.754000	           -5.694832	          489.240028	          -39.939175	           -0.174118	            0.006097	           -0.373399	           -0.018539	            1.592645	           -0.130016	            3.458392	          318.098183	           36.658019	           -0.190811	            0.005912	           -0.730440	           -0.001475	           -0.135636	           -0.015631
            3.754500	           -5.189215	          484.372135	          -39.777873	           -0.173949	            0.006097	           -0.373327	           -0.016656	            1.554726	           -0.127678	            3.565988	          314.231886	           36.503397	           -0.190546	            0.005915	           -0.731022	           -0.001363	           -0.120144	           -0.013957
            3.755000	           -5.324490	          479.502606	          -39.248131	           -0.174032	            0.006098	           -0.373538	           -0.016857	            1.518044	           -0.124255	            3.721762	          309.997537	           36.347441	           -0.190252	            0.005914	           -0.730585	           -0.000339	           -0.028269	           -0.003315
            3.755500	           -5.185197	          476.075589	          -38.804599	           -0.173631	            0.006096	           -0.373166	           -0.016648	            1.528533	           -0.124590	            3.594943	          306.131733	           35.817493	           -0.190141	            0.005914	           -0.730573	           -0.000705	           -0.060002	           -0.007020
            3.756000	           -5.274874	          471.927328	          -38.317731	           -0.173923	            0.006095	           -0.373042	           -0.016406	            1.467808	           -0.119177	            3.559933	          302.817914	           35.524117	           -0.190162	            0.005917	           -0.731307	           -0.001201	           -0.102146	           -0.011983
            3.756500	           -4.814693	          466.698306	          -38.020297	           -0.173689	            0.006096	           -0.373205	           -0.015697	            1.521522	           -0.123953	            3.579769	          297.294285	           35.269765	           -0.190084	            0.005915	           -0.730604	           -0.001014	           -0.084247	           -0.009995
            3.757000	           -4.675724	          462.551073	          -37.763281	           -0.173398	            0.006096	           -0.373222	           -0.014658	            1.450068	           -0.118385	            3.915488	          295.087333	           34.792460	           -0.190005	            0.005917	           -0.731172	           -0.001756	           -0.132354	           -0.015605
            3.757500	           -4.673927	          458.943793	          -37.320181	           -0.173533	            0.006095	           -0.372880	           -0.015212	            1.493708	           -0.121465	            3.741298	          291.404390	           34.591686	           -0.190168	            0.005917	           -0.731287	           -0.000041	           -0.003168	           -0.000376
            3.758000	           -4.212754	          453.893297	          -36.609267	           -0.173511	            0.006095	           -0.373039	           -0.012870	            1.386597	           -0.111838	            3.710276	          286.985665	           34.294368	           -0.189914	            0.005917	           -0.731085	           -0.000035	           -0.002732	           -0.000326
            3.758500	           -3.935687	          449.745046	          -36.123309	           -0.173282	            0.006094	           -0.372744	           -0.013425	            1.534099	           -0.123218	            4.004462	          283.305357	           33.811826	           -0.189753	            0.005918	           -0.731145	           -0.000381	           -0.026944	           -0.003216
            3.759000	           -4.208994	          444.515943	          -35.824055	           -0.173005	            0.006096	           -0.373167	           -0.013411	            1.416379	           -0.114148	            3.926631	          278.886128	           33.608384	           -0.189571	            0.005917	           -0.730798	            0.000235	            0.016714	            0.002014
            3.759500	           -3.978567	          440.369060	          -35.658978	           -0.173012	            0.006096	           -0.373150	           -0.012726	            1.408618	           -0.114063	            3.798586	          275.387830	           33.314391	           -0.189685	            0.005918	           -0.731200	           -0.000673	           -0.048760	           -0.005899
            3.760000	           -3.792467	          434.777941	          -34.995553	           -0.172785	            0.006097	           -0.373303	           -0.012195	            1.398084	           -0.112533	            4.093580	          271.522209	           33.159689	           -0.189560	            0.005920	           -0.731470	           -0.000893	           -0.059252	           -0.007236
            3.760500	           -3.424870	          431.352540	          -34.919437	           -0.172923	            0.006095	           -0.372879	           -0.010953	            1.379483	           -0.111674	            3.916650	          268.576498	           32.773831	           -0.189128	            0.005922	           -0.731533	            0.000351	            0.024043	            0.002934
            3.761000	           -3.376252	          426.121729	          -34.208272	           -0.172445	            0.006096	           -0.373105	           -0.010889	            1.374273	           -0.110324	            3.977210	          264.711599	           32.196875	           -0.189498	            0.005920	           -0.731530	            0.000461	            0.030664	            0.003730
            3.761500	           -3.145174	          422.153963	          -33.767287	           -0.172386	            0.006094	           -0.372697	           -0.010160	            1.363671	           -0.109077	            4.041799	          259.741399	           31.709834	           -0.189229	            0.005919	           -0.731026	           -0.000555	           -0.035678	           -0.004356
            3.762000	           -3.235780	          418.728080	          -33.598323	           -0.172453	            0.006093	           -0.372518	           -0.009849	            1.274524	           -0.102267	            4.095898	          257.716462	           31.561802	           -0.189293	            0.005922	           -0.731890	            0.000650	            0.040908	            0.005010
            3.762500	           -3.187224	          412.596304	          -32.982734	           -0.171947	            0.006096	           -0.373105	           -0.010182	            1.318086	           -0.105367	            3.877374	          253.297897	           31.029923	           -0.189045	            0.005922	           -0.731674	            0.000027	            0.001737	            0.000213
            3.763000	           -2.956455	          408.448892	          -32.680094	           -0.172179	            0.006097	           -0.373300	           -0.009397	            1.298278	           -0.103876	            3.845707	          249.063146	           30.780190	           -0.189318	            0.005920	           -0.731293	            0.000811	            0.052553	            0.006495
            3.763500	           -2.680089	          405.022687	          -32.420327	           -0.172279	            0.006094	           -0.372646	           -0.008645	            1.306504	           -0.104580	            3.998741	          245.566029	           30.439150	           -0.188684	            0.005923	           -0.731444	            0.000094	            0.005756	            0.000714
            3.764000	           -2.541315	          400.695551	          -32.255796	           -0.172068	            0.006094	           -0.372723	           -0.008413	            1.326527	           -0.106785	            4.056060	          242.621164	           30.053192	           -0.189067	            0.005922	           -0.731677	           -0.000583	           -0.034861	           -0.004318
            3.764500	           -2.401352	          395.465348	          -31.682422	           -0.171829	            0.006094	           -0.372739	           -0.007653	            1.260253	           -0.100964	            3.833609	          239.306972	           29.666039	           -0.188981	            0.005925	           -0.732220	            0.000705	            0.043979	            0.005452
            3.765000	           -2.353467	          391.136818	          -31.196676	           -0.171776	            0.006094	           -0.372592	           -0.007404	            1.230531	           -0.098146	            3.706331	          235.623666	           29.606030	           -0.188729	            0.005925	           -0.732065	            0.001433	            0.091089	            0.011445
            3.765500	           -2.076771	          385.907956	          -30.944639	           -0.171206	            0.006094	           -0.372692	           -0.006537	            1.214757	           -0.097407	            4.047429	          231.943055	           29.264253	           -0.188665	            0.005926	           -0.732237	            0.000805	            0.046153	            0.005823
            3.766000	           -2.258314	          382.120406	          -30.501857	           -0.171495	            0.006093	           -0.372430	           -0.007224	            1.222335	           -0.097570	            3.825019	          228.628559	           28.970957	           -0.188865	            0.005925	           -0.732244	            0.001028	            0.061470	            0.007789
